<?xml version="1.0" encoding="UTF-8"?>
<svg width="54px" height="54px" viewBox="0 0 54 54" version="1.1" xmlns="http://www.w3.org/2000/svg" xmlns:xlink="http://www.w3.org/1999/xlink">
    <!-- Generator: Sketch 42 (36781) - http://www.bohemiancoding.com/sketch -->
    <title>Fill 80</title>
    <desc>Created with Sketch.</desc>
    <defs></defs>
    <g id="resources/explorations" stroke="none" stroke-width="1" fill="none" fill-rule="evenodd">
        <g id="resources-v1" transform="translate(-292.000000, -1234.000000)" fill="#F1F2F2">
            <g id="recent" transform="translate(193.000000, 597.000000)">
                <g id="Group-3-Copy-6" transform="translate(0.000000, 564.000000)">
                    <g id="Group-4">
                        <path d="M137.902,102.07 L122.953,112.534 C122.457,112.851 121.98,113 121.5,113 C120.121,113 119,111.879 119,110.5 L119,89.5 C119,88.121 120.121,87 121.5,87 C121.98,87 122.457,87.148 122.917,87.442 L137.914,97.938 C138.589,98.395 139,99.17 139,100 C139,100.83 138.589,101.603 137.902,102.07 M126,73 C111.112,73 99,85.112 99,100 C99,114.887 111.112,127 126,127 C140.887,127 153,114.887 153,100 C153,85.112 140.887,73 126,73" id="Fill-80"></path>
                    </g>
                </g>
            </g>
        </g>
    </g>
</svg>