<?xml version="1.0" encoding="UTF-8"?>
<svg width="31px" height="31px" viewBox="0 0 31 31" version="1.1" xmlns="http://www.w3.org/2000/svg" xmlns:xlink="http://www.w3.org/1999/xlink">
    <!-- Generator: Sketch 42 (36781) - http://www.bohemiancoding.com/sketch -->
    <title>doc-contract</title>
    <desc>Created with Sketch.</desc>
    <defs></defs>
    <g id="resources/explorations" stroke="none" stroke-width="1" fill="none" fill-rule="evenodd" stroke-linecap="round" opacity="0.400000006" stroke-linejoin="round">
        <g id="resources-v1" transform="translate(-333.000000, -664.000000)" stroke="#484E63" stroke-width="1.39999998">
            <g id="types" transform="translate(194.000000, 664.000000)">
                <g id="Group-20" transform="translate(120.000000, 0.000000)">
                    <g id="doc-contract" transform="translate(19.000000, 0.000000)">
                        <path d="M4.93181818,10.5681818 L10.5681818,10.5681818" id="Stroke-12"></path>
                        <path d="M4.93181818,13.3863636 L17.6136364,13.3863636" id="Stroke-14"></path>
                        <path d="M4.93181818,16.2045455 L17.6136364,16.2045455" id="Stroke-16"></path>
                        <path d="M4.93181818,19.0227273 L17.6136364,19.0227273" id="Stroke-18"></path>
                        <path d="M13.3863636,21.8409091 C13.3863636,22.6194318 12.7557955,23.25 11.9772727,23.25 C11.19875,23.25 10.5681818,22.6194318 10.5681818,21.8409091 C10.5681818,22.6194318 9.93761364,23.25 9.15909091,23.25 C8.38056818,23.25 7.75,22.6194318 7.75,21.8409091 C7.75,22.6194318 7.11943182,23.25 6.34090909,23.25 C5.56238636,23.25 4.93181818,22.6194318 4.93181818,21.8409091" id="Stroke-20"></path>
                        <path d="M30.2954545,11.9772727 L24.6590909,11.9772727" id="Stroke-22"></path>
                        <path d="M28.9574523,20.4318182 C29.7084977,18.1857273 30.2657932,16.6350227 30.293975,11.9772727 C30.3376568,4.90575 28.8792477,0.694681818 27.4772023,0.704545455 C26.0751568,0.694681818 24.6167477,4.90575 24.6604295,11.9772727 C24.6893159,16.6350227 25.2459068,18.1857273 25.9969523,20.4318182 L28.9574523,20.4318182 L28.9574523,20.4318182 Z" id="Stroke-24"></path>
                        <path d="M26.7727273,20.4318182 C26.7727273,20.4318182 26.288,23.002 24.6590909,24.6590909 C24.6590909,24.6590909 27.4631818,28.1423636 27.4772727,30.2954545 C27.4631818,28.1423636 30.2954545,24.6590909 30.2954545,24.6590909 C28.6454091,22.9794545 28.1818182,20.4318182 28.1818182,20.4318182" id="Stroke-26"></path>
                        <path d="M2.81818182,0.704545455 L15.5,0.704545455 L21.8409091,7.04545455 L21.8409091,28.1818182 C21.8409091,29.3485455 20.894,30.2954545 19.7272727,30.2954545 L2.81818182,30.2954545 C1.65075,30.2954545 0.704545455,29.3485455 0.704545455,28.1818182 L0.704545455,2.81818182 C0.704545455,1.65145455 1.65075,0.704545455 2.81818182,0.704545455" id="Stroke-28"></path>
                        <path d="M14.7954545,0.704545455 L14.7954545,5.63636364 C14.7954545,6.80309091 15.7423636,7.75 16.9090909,7.75 L21.8409091,7.75" id="Stroke-30"></path>
                    </g>
                </g>
            </g>
        </g>
    </g>
</svg>