<?xml version="1.0" encoding="UTF-8"?>
<svg width="27px" height="30px" viewBox="0 0 27 30" version="1.1" xmlns="http://www.w3.org/2000/svg" xmlns:xlink="http://www.w3.org/1999/xlink">
    <!-- Generator: Sketch 42 (36781) - http://www.bohemiancoding.com/sketch -->
    <title>doc-notebook</title>
    <desc>Created with Sketch.</desc>
    <defs></defs>
    <g id="resources/explorations" stroke="none" stroke-width="1" fill="none" fill-rule="evenodd" stroke-linecap="round" opacity="0.400000006" stroke-linejoin="round">
        <g id="resources-v1" transform="translate(-211.000000, -665.000000)" stroke="#484E63" stroke-width="1.39999998">
            <g id="types" transform="translate(194.000000, 664.000000)">
                <g id="Group-19">
                    <g id="doc-notebook" transform="translate(15.000000, 0.000000)">
                        <path d="M10.5681818,10.5681818 L23.25,10.5681818" id="Stroke-204"></path>
                        <path d="M20.4318182,13.3863636 L13.3863636,13.3863636" id="Stroke-205"></path>
                        <path d="M3.52272727,6.34090909 L6.34090909,6.34090909" id="Stroke-206"></path>
                        <path d="M3.52272727,9.15909091 L6.34090909,9.15909091" id="Stroke-207"></path>
                        <path d="M3.52272727,11.9772727 L6.34090909,11.9772727" id="Stroke-208"></path>
                        <path d="M3.52272727,14.7954545 L6.34090909,14.7954545" id="Stroke-209"></path>
                        <path d="M3.52272727,17.6136364 L6.34090909,17.6136364" id="Stroke-210"></path>
                        <path d="M3.52272727,20.4318182 L6.34090909,20.4318182" id="Stroke-211"></path>
                        <path d="M3.52272727,23.25 L6.34090909,23.25" id="Stroke-212"></path>
                        <path d="M3.52272727,26.0681818 L6.34090909,26.0681818" id="Stroke-213"></path>
                        <path d="M4.93181818,28.1818182 L4.93181818,4.22727273 C4.93181818,3.06054545 5.87802273,2.11363636 7.04545455,2.11363636 L25.3636364,2.11363636 C26.5310682,2.11363636 27.4772727,3.06054545 27.4772727,4.22727273 L27.4772727,28.1818182 C27.4772727,29.3485455 26.5310682,30.2954545 25.3636364,30.2954545 L7.04545455,30.2954545 C5.87802273,30.2954545 4.93181818,29.3485455 4.93181818,28.1818182 L4.93181818,28.1818182 Z" id="Stroke-214"></path>
                    </g>
                </g>
            </g>
        </g>
    </g>
</svg>