<?xml version="1.0" encoding="UTF-8"?>
<svg width="46px" height="54px" viewBox="0 0 46 54" version="1.1" xmlns="http://www.w3.org/2000/svg" xmlns:xlink="http://www.w3.org/1999/xlink">
    <!-- Generator: Sketch 42 (36781) - http://www.bohemiancoding.com/sketch -->
    <title>ext-pdf</title>
    <desc>Created with Sketch.</desc>
    <defs></defs>
    <g id="resources/explorations" stroke="none" stroke-width="1" fill="none" fill-rule="evenodd" stroke-linecap="round" stroke-linejoin="round">
        <g id="resources-v1" transform="translate(-565.000000, -2022.000000)" stroke="#F1F2F2" stroke-width="2">
            <g id="recent" transform="translate(193.000000, 597.000000)">
                <g id="Group-3-Copy-15" transform="translate(269.000000, 1352.000000)">
                    <g id="Group-4">
                        <g id="ext-pdf" transform="translate(104.000000, 74.000000)">
                            <path d="M40,46 L40,49 C40,50.656 38.656,52 37,52 L3,52 C1.344,52 0,50.656 0,49 L0,3 C0,1.344 1.344,0 3,0 L29,0 L40,11 L40,30" id="Stroke-51"></path>
                            <path d="M28,0 L28,9 C28,10.656 29.344,12 31,12 L40,12" id="Stroke-52"></path>
                            <polygon id="Stroke-53" points="6 46 44 46 44 30 6 30"></polygon>
                            <path d="M22,14 C22,18.42 18.418,22 14,22 C9.582,22 6,18.42 6,14 C6,9.58 9.582,6 14,6 C18.418,6 22,9.58 22,14 L22,14 Z" id="Stroke-54"></path>
                            <path d="M14,6 L14,14" id="Stroke-55"></path>
                            <path d="M14,14 L22,14" id="Stroke-56"></path>
                            <path d="M14,42 L14,34 L16,34 C17.105,34 18,34.895 18,36 C18,37.104 17.105,38 16,38 L14,38" id="Stroke-57"></path>
                            <path d="M24,42 C25.105,42 26,41.104 26,40 L26,36 C26,34.895 25.105,34 24,34 L22,34 L22,42 L24,42 L24,42 Z" id="Stroke-58"></path>
                            <polyline id="Stroke-59" points="34 34 30 34 30 42"></polyline>
                            <path d="M30,38 L32,38" id="Stroke-60"></path>
                        </g>
                    </g>
                </g>
            </g>
        </g>
    </g>
</svg>