<?xml version="1.0" encoding="UTF-8"?>
<svg width="31px" height="31px" viewBox="0 0 31 31" version="1.1" xmlns="http://www.w3.org/2000/svg" xmlns:xlink="http://www.w3.org/1999/xlink">
    <!-- Generator: Sketch 42 (36781) - http://www.bohemiancoding.com/sketch -->
    <title>mov-computer</title>
    <desc>Created with Sketch.</desc>
    <defs></defs>
    <g id="resources/explorations" stroke="none" stroke-width="1" fill="none" fill-rule="evenodd" stroke-linecap="round" opacity="0.400000006" stroke-linejoin="round">
        <g id="resources-v1" transform="translate(-460.000000, -665.000000)" stroke="#484E63" stroke-width="1.39999998">
            <g id="types" transform="translate(194.000000, 664.000000)">
                <g id="Group-21" transform="translate(242.000000, 1.000000)">
                    <g id="mov-computer" transform="translate(24.000000, 0.000000)">
                        <path d="M11.9772727,5.55512955 L11.9772727,12.7633341 C11.9772727,13.2691977 12.56275,13.5636977 12.9840682,13.2691977 L18.7564091,9.66544773 C19.1115,9.41744773 19.1115,8.90101591 18.7564091,8.65301591 L12.9840682,5.04856136 C12.56275,4.75476591 11.9772727,5.04926591 11.9772727,5.55512955 L11.9772727,5.55512955 Z" id="Stroke-630"></path>
                        <path d="M0.704545455,17.6136364 L30.2954545,17.6136364" id="Stroke-631"></path>
                        <path d="M2.81818182,23.25 C1.65075,23.25 0.704545455,22.3037955 0.704545455,21.1363636 L0.704545455,2.81818182 C0.704545455,1.65075 1.65075,0.704545455 2.81818182,0.704545455 L28.1818182,0.704545455 C29.34925,0.704545455 30.2954545,1.65075 30.2954545,2.81818182 L30.2954545,21.1363636 C30.2954545,22.3037955 29.34925,23.25 28.1818182,23.25 L2.81818182,23.25 L2.81818182,23.25 Z" id="Stroke-632"></path>
                        <path d="M11.2727273,26.0681818 L10.5681818,28.8863636 C10.5681818,29.6641818 11.1994545,30.2954545 11.9772727,30.2954545 L19.0227273,30.2954545 C19.8005455,30.2954545 20.4318182,29.6641818 20.4318182,28.8863636 L19.7272727,26.0681818" id="Stroke-633"></path>
                        <path d="M14.7954545,20.4318182 L16.2045455,20.4318182" id="Stroke-634"></path>
                    </g>
                </g>
            </g>
        </g>
    </g>
</svg>