<?xml version="1.0" encoding="UTF-8"?>
<svg width="31px" height="31px" viewBox="0 0 31 31" version="1.1" xmlns="http://www.w3.org/2000/svg" xmlns:xlink="http://www.w3.org/1999/xlink">
    <!-- Generator: Sketch 42 (36781) - http://www.bohemiancoding.com/sketch -->
    <title>use-user-search</title>
    <desc>Created with Sketch.</desc>
    <defs></defs>
    <g id="resources/explorations" stroke="none" stroke-width="1" fill="none" fill-rule="evenodd" stroke-linecap="round" opacity="0.400000006" stroke-linejoin="round">
        <g id="resources-v1" transform="translate(-1072.000000, -664.000000)" stroke="#484E63" stroke-width="1.39999998">
            <g id="types" transform="translate(194.000000, 664.000000)">
                <g id="Group-24" transform="translate(840.000000, 0.000000)">
                    <g id="use-user-search" transform="translate(38.000000, 0.000000)">
                        <path d="M19.0227273,6.34090909 C19.0227273,9.45359091 16.4990455,11.9772727 13.3863636,11.9772727 C10.2736818,11.9772727 7.75,9.45359091 7.75,6.34090909 C7.75,3.22822727 10.2736818,0.704545455 13.3863636,0.704545455 C16.4990455,0.704545455 19.0227273,3.22822727 19.0227273,6.34090909 L19.0227273,6.34090909 Z" id="Stroke-16"></path>
                        <path d="M0.704545455,24.6590909 C0.704545455,17.6552045 6.38247727,11.9772727 13.3863636,11.9772727 C16.6286818,11.9772727 19.5863636,13.1940227 21.8282273,15.1949318" id="Stroke-17"></path>
                        <path d="M21.8780386,26.0310523 L17.613425,30.2956659" id="Stroke-18"></path>
                        <path d="M30.2954545,22.5454545 C30.2954545,19.8216818 28.0874091,17.6136364 25.3636364,17.6136364 C22.6398636,17.6136364 20.4318182,19.8216818 20.4318182,22.5454545 C20.4318182,25.2692273 22.6398636,27.4772727 25.3636364,27.4772727 C28.0874091,27.4772727 30.2954545,25.2692273 30.2954545,22.5454545 L30.2954545,22.5454545 Z" id="Stroke-19"></path>
                    </g>
                </g>
            </g>
        </g>
    </g>
</svg>