<?xml version="1.0" encoding="UTF-8"?>
<svg width="201px" height="37px" viewBox="0 0 201 37" version="1.1" xmlns="http://www.w3.org/2000/svg" xmlns:xlink="http://www.w3.org/1999/xlink">
    <!-- Generator: Sketch 42 (36781) - http://www.bohemiancoding.com/sketch -->
    <title>Asset 1 Copy</title>
    <desc>Created with Sketch.</desc>
    <defs>
        <linearGradient x1="0.000325163319%" y1="49.9995074%" x2="100.001594%" y2="49.9995074%" id="linearGradient-1">
            <stop stop-color="#8CD2D6" offset="0%"></stop>
            <stop stop-color="#566BB3" offset="100%"></stop>
        </linearGradient>
    </defs>
    <g id="resources/explorations" stroke="none" stroke-width="1" fill="none" fill-rule="evenodd">
        <g id="resources-v1" transform="translate(-34.000000, -33.000000)" fill="url(#linearGradient-1)">
            <g id="nav">
                <g id="Asset-1-Copy" transform="translate(34.000000, 33.000000)">
                    <g id="Asset-1">
                        <g id="Layer_2">
                            <g id="Layer_1-2">
                                <path d="M25.4074865,9.61455882 L8.31162162,9.61455882 L8.31162162,25.3939706 L0.353108108,25.3939706 C0.271621622,25.1110294 0.233594595,1.02294118 0.320513514,0.272058824 L25.4074865,0.272058824 L25.4074865,9.61455882 Z M10.7399189,12.1447059 L10.7399189,31.0473529 L29.6719459,31.0473529 L29.6719459,12.1283824 C29.2156216,12.0413235 11.0712973,12.0576471 10.7399189,12.1447059 L10.7399189,12.1447059 Z M46.593973,17.5858824 C50.4640909,16.3792007 52.8603731,12.5068808 52.2174888,8.49845009 C51.5746044,4.49001936 48.0880241,1.56425068 44.0352973,1.63235294 L36.0659189,1.63235294 L35.6856486,1.63235294 L35.6856486,29.7414706 L37.8912162,29.7414706 L37.8912162,3.87955882 L38.4344595,3.87955882 L44.057027,3.87955882 C46.1647588,3.83387611 48.1367156,4.91793501 49.2300803,6.72338102 C50.323445,8.52882702 50.3721096,10.7813699 49.3577425,12.6324987 C48.3433754,14.4836274 46.4200832,15.6521114 44.3123514,15.6977941 L42.0524595,15.6977941 C41.9492432,15.6977941 41.8405946,15.6977941 41.6776216,15.725 C41.7971351,15.8882353 41.8731892,16.0025 41.9601081,16.1113235 C43.7709189,18.4038725 45.5962162,20.6946078 47.436,22.9835294 C49.3735676,25.4356863 51.322,27.8805882 53.2812973,30.3182353 C53.5744444,30.7276239 54.0108928,31.0112863 54.5035946,31.1126471 C55.2403157,31.1811568 55.9808396,31.1993361 56.720027,31.1670588 L45.9692432,17.76 L46.593973,17.5858824 Z M74.4895135,18.9679412 C74.5384054,19.4032353 74.5438378,19.8494118 74.5492703,20.2847059 C74.5408523,20.5122881 74.5209077,20.7392958 74.4895135,20.9648529 L59.1591892,20.9648529 C59.2080811,21.3294118 59.2298108,21.6395588 59.295,21.9388235 C59.6513579,23.9137795 60.8230568,25.6464965 62.5218649,26.7107353 C65.0764377,28.2339074 68.3418786,27.7943581 70.4043243,25.6497059 C70.7312672,25.248355 71.0376874,24.8306622 71.3224054,24.3982353 L73.2780811,24.9423529 C73.136106,25.3681756 72.9210133,25.7659089 72.6424865,26.1176471 C71.5768987,27.5723211 70.0412328,28.6124868 68.2965405,29.0613235 C65.1891892,29.8720588 62.2991351,29.3823529 59.8273784,27.2058824 C58.03051,25.6516631 56.9130693,23.4542036 56.7145946,21.0845588 C56.4425835,18.9764945 56.9112021,16.8393087 58.0401081,15.0394118 C59.6057191,12.3792887 62.4703521,10.7589853 65.5531622,10.7898529 C67.7086194,10.7103716 69.8105118,11.4732657 71.4147568,12.9173529 C73.1703378,14.4598895 74.2639697,16.6214374 74.4677838,18.9516176 L74.4895135,18.9679412 Z M72.2839459,19.1202941 C72.1922396,17.4664079 71.5208557,15.8979661 70.388027,14.6911765 C69.2011615,13.3723268 67.5049883,12.6289327 65.7324324,12.6507353 C64.0025379,12.6289588 62.3349465,13.2968173 61.0969444,14.5072155 C59.8589424,15.7176136 59.1520741,17.3712711 59.132027,19.1039706 L72.2839459,19.1202941 Z M119.241892,19.0277941 C119.279919,19.425 119.296216,19.8222059 119.296216,20.2194118 C119.296216,20.4588235 119.252757,20.6927941 119.225595,20.9702941 L103.955027,20.9702941 C103.946715,21.0753255 103.946715,21.180851 103.955027,21.2858824 C104.286405,23.7997059 105.459811,25.7802941 107.75773,26.9610294 C109.52263,27.867645 111.615397,27.867645 113.380297,26.9610294 C114.489514,26.4864454 115.395713,25.6346739 115.938973,24.5560294 C115.974744,24.4970211 116.014683,24.4406517 116.058486,24.3873529 L118.068486,24.9314706 C117.714484,25.816901 117.155972,26.6056703 116.438757,27.2330882 C113.182643,30.0053223 108.441932,30.1432503 105.030649,27.565 C103.305256,26.2247491 102.123949,24.3030024 101.706,22.1564706 C101.085309,19.6804125 101.513894,17.0575081 102.89027,14.9088235 C104.467571,12.3430463 107.270179,10.7908745 110.278378,10.8170588 C112.462488,10.7360112 114.590964,11.5176436 116.205162,12.9935294 C117.944479,14.5378907 119.02564,16.6920074 119.225595,19.0114706 L119.241892,19.0277941 Z M117.030892,19.1202941 C116.933718,17.4041261 116.210711,15.7834556 114.999162,14.5660294 C113.77549,13.2748133 112.054262,12.5764851 110.278378,12.6507353 C106.766971,12.7325938 103.951594,15.5861868 103.911568,19.1039706 L117.030892,19.1202941 Z M200.739243,20.6655882 C200.739243,20.7472059 200.739243,20.8342647 200.690351,20.9702941 L185.381757,20.9702941 C185.491435,22.6685511 186.175468,24.2787139 187.321135,25.5354412 C188.485386,26.8802935 190.183478,27.6410841 191.960432,27.6139706 C193.705941,27.6572718 195.387937,26.9572891 196.588865,25.6877941 C196.933925,25.276863 197.254975,24.8462915 197.550405,24.3982353 L199.506081,24.9423529 C199.25742,25.6155614 198.870646,26.2290942 198.370703,26.7433824 C196.910827,28.2914896 194.923325,29.2334315 192.802459,29.3823529 C190.64135,29.6268927 188.46786,29.0437709 186.718135,27.75 C184.631309,26.2544189 183.270466,23.9471397 182.969757,21.3947059 C182.66966,19.5260518 182.954303,17.6101667 183.784622,15.91 C185.311135,12.8520588 187.772027,11.0891176 191.205324,10.8061765 C192.82828,10.6476874 194.462016,10.9692852 195.904378,11.7311765 C198.282113,12.9817092 199.974751,15.2342049 200.516514,17.8688235 C200.733516,18.7786015 200.801401,19.7176651 200.717514,20.6492647 L200.739243,20.6655882 Z M198.495649,19.1257353 C198.289216,15.5672059 195.301378,12.1936765 191.042351,12.7269118 C189.367068,12.9113154 187.840965,13.7769089 186.821351,15.1210294 C185.930315,16.2724998 185.41445,17.6706167 185.34373,19.1257353 L198.495649,19.1257353 Z M82.9206486,1.03382353 C80.3790084,1.94227261 78.6970132,4.37086989 78.7376757,7.07352941 C78.7105135,14.3864706 78.7376757,21.6939706 78.7376757,29.0069118 L78.7376757,29.3823529 L81.0301622,29.3823529 L81.0301622,13.3254412 L85.1805405,13.3254412 C85.3506181,13.3351737 85.5211116,13.3351737 85.6911892,13.3254412 C86.7072456,13.1979258 87.4466473,12.2972706 87.3752432,11.2741176 L81.0627568,11.2741176 L81.0627568,11.0183824 L81.0627568,7.35102941 C81.074816,6.9111636 81.131238,6.47364538 81.2311622,6.04514706 C81.5933879,4.05656574 83.3836406,2.65385319 85.3978378,2.78044118 C86.3552898,2.80880451 87.2816011,3.12755864 88.0542973,3.69455882 L88.4454324,3.97205882 L89.7111892,2.28529412 L89.5373514,2.17102941 C87.674402,0.676126171 85.1745848,0.246485162 82.9206486,1.03382353 L82.9206486,1.03382353 Z M180.161189,10.8279412 C179.69035,10.8592186 179.273917,11.1449342 179.074703,11.5733824 C179.018851,11.6882565 178.969872,11.8063573 178.928027,11.9270588 L173.294595,26.5964706 C173.24027,26.7379412 173.180514,26.8739706 173.093595,27.0807353 C172.995811,26.8467647 172.925189,26.6944118 172.865432,26.5366176 L168.677027,15.6542647 C168.177243,14.3538235 167.672027,13.0588235 167.177676,11.7583824 C167.044278,11.278299 166.646653,10.9181663 166.156378,10.8333824 C165.533978,10.797377 164.910022,10.797377 164.287622,10.8333824 L171.713757,29.3823529 L174.283297,29.3823529 L181.742027,10.8279412 C181.166189,10.8279412 180.671838,10.8007353 180.177486,10.8333824 L180.161189,10.8279412 Z M147.762162,27.3092647 C146.475764,27.2593677 145.343024,26.4459074 144.882973,25.2416176 C144.614066,24.6122329 144.475459,23.9347409 144.475541,23.2501471 L144.475541,13.3907353 C144.479229,13.2797231 144.488294,13.1689556 144.502703,13.0588235 L149.772162,13.0588235 C149.95452,13.0634593 150.136804,13.0470273 150.315405,13.0098529 C151.141135,12.8085294 151.765865,12.0467647 151.461649,10.7626471 L144.453811,10.7626471 L144.453811,5.98529412 C143.718198,5.90365349 142.975186,5.91645313 142.242811,6.02338235 L142.242811,6.31176471 L142.242811,22.9944118 C142.235393,23.8645353 142.376872,24.7294997 142.661108,25.5517647 C143.206941,27.3794772 144.686034,28.7758802 146.539865,29.2136765 C147.988482,29.5725279 149.516894,29.4107753 150.858649,28.7566176 C151.406211,28.5108508 151.910652,28.178303 152.352568,27.7717647 L151.168297,26.1176471 C150.253324,26.9812095 149.014957,27.4144454 147.762162,27.3092647 L147.762162,27.3092647 Z M138.179351,11.3448529 C137.962054,11.3448529 137.842541,11.3122059 137.723027,11.3122059 L136.272568,11.3122059 C135.6254,11.2806638 134.99794,11.5400322 134.561351,12.0195588 C133.724757,12.8901471 132.871865,13.7498529 132.024405,14.6095588 L127.059162,19.6535294 C126.993973,19.7188235 126.939649,19.795 126.874459,19.8766176 C126.988541,20.0017647 127.075459,20.1105882 127.173243,20.2139706 L130.568514,23.8105882 C134.425541,27.8878431 138.264459,31.9578431 142.08527,36.0205882 C142.562777,36.5512961 143.24629,36.8489541 143.959459,36.8367647 L145.366459,36.8367647 C145.458811,36.8367647 145.556595,36.8367647 145.735865,36.7932353 L129.786243,19.8820588 L138.179351,11.3448529 Z M97.044973,27.3636765 C94.9208919,27.7445588 93.5301892,26.1067647 93.7148919,24.5995588 L93.7148919,1.42558824 L92.3676486,1.42558824 C92.087145,1.42233361 91.837682,1.60365125 91.7537838,1.87176471 C91.7018582,2.03335975 91.6779718,2.20267417 91.6831622,2.37235294 L91.6831622,6.9375 L91.6831622,24.6866176 C91.6507735,26.1979832 92.3518754,27.6312967 93.5640786,28.5319117 C94.7762818,29.4325266 96.3491552,29.6886791 97.7837838,29.2191176 C98.4836199,29.0230151 99.1250985,28.658801 99.6525405,28.1580882 L98.9354595,26.4441176 C98.4080112,26.9282913 97.7510203,27.2478608 97.044973,27.3636765 Z M124.169108,29.23 L126.342081,29.23 L126.342081,0.865147059 L124.169108,0.865147059 L124.169108,29.23 Z M157.573135,11.47 L157.573135,27.6030882 L157.573135,27.9023529 C157.606449,28.5916177 158.084527,29.178592 158.751973,29.3497059 C159.173547,29.4248542 159.60421,29.434032 160.028595,29.3769118 L160.028595,10.9204412 L157.567703,10.9204412 L157.573135,11.47 Z M158.800865,2.80764706 C157.936597,2.81942146 157.239662,3.51989374 157.230892,4.38558824 C157.222158,4.80494477 157.381637,5.21030418 157.673642,5.5109609 C157.965648,5.81161762 158.365803,5.98247252 158.784568,5.98529412 C159.211961,6.00788652 159.629626,5.85226749 159.938372,5.55539473 C160.247117,5.25852198 160.419397,4.84688227 160.414297,4.41823529 C160.423326,3.98742197 160.25606,3.57165104 159.951339,3.26746716 C159.646618,2.96328329 159.230953,2.79715092 158.800865,2.80764706 L158.800865,2.80764706 Z" id="Shape"></path>
                            </g>
                        </g>
                    </g>
                </g>
            </g>
        </g>
    </g>
</svg>